<?xml version="1.0" encoding="UTF-8"?> <svg xmlns="http://www.w3.org/2000/svg" viewBox="0 0 287.63 172"><defs><style>.cls-1{fill:#252f3e;}.cls-2{fill:#f90;fill-rule:evenodd;}</style></defs><title>logo-aws</title><g id="Layer_2" data-name="Layer 2"><g id="Layer_1-2" data-name="Layer 1"><path class="cls-1" d="M81.06,62.47a28.89,28.89,0,0,0,1,8.51,50.31,50.31,0,0,0,3.06,6.89,4.13,4.13,0,0,1,.67,2.2A3.77,3.77,0,0,1,84,82.94l-6,4a4.66,4.66,0,0,1-2.49.86,4.39,4.39,0,0,1-2.87-1.34A30.13,30.13,0,0,1,69.19,82c-1-1.62-1.91-3.44-3-5.64Q55,89.54,38.1,89.54c-8,0-14.44-2.3-19.13-6.89s-7.08-10.71-7.08-18.37c0-8.13,2.87-14.73,8.71-19.7S34.18,37.12,44,37.12a75.46,75.46,0,0,1,10.14.76c3.53.48,7.17,1.25,11,2.11V33c0-7.27-1.53-12.34-4.5-15.3s-8.23-4.4-15.59-4.4a43.55,43.55,0,0,0-10.33,1.24,76.15,76.15,0,0,0-10.34,3.25A27.45,27.45,0,0,1,21.08,19a5.87,5.87,0,0,1-1.53.28c-1.34,0-2-.95-2-3V11.67a6,6,0,0,1,.67-3.35,7.13,7.13,0,0,1,2.67-2A55.34,55.34,0,0,1,32.94,2,58.15,58.15,0,0,1,47.86.19c11.39,0,19.71,2.58,25.06,7.75s7.94,13,7.94,23.53v31ZM42.22,77a31.22,31.22,0,0,0,9.85-1.72,21.36,21.36,0,0,0,9.09-6.13A15.05,15.05,0,0,0,64.41,63a34,34,0,0,0,1-8.32v-4a81.85,81.85,0,0,0-8.8-1.63,72.63,72.63,0,0,0-9-.57c-6.4,0-11.09,1.24-14.25,3.83s-4.69,6.22-4.69,11c0,4.49,1.15,7.84,3.54,10.14S37.82,77,42.22,77ZM119,87.34a5.32,5.32,0,0,1-3.63-1,7.69,7.69,0,0,1-2-3.73L90.91,8.71a17.05,17.05,0,0,1-.86-3.83,2.09,2.09,0,0,1,2.29-2.39h9.38c1.82,0,3.06.28,3.73.95s1.34,1.92,1.91,3.73L123.43,70.5,138.36,7.17c.48-1.91,1-3.15,1.82-3.73A6.58,6.58,0,0,1,144,2.49h7.65c1.82,0,3.07.28,3.83.95a6.44,6.44,0,0,1,1.82,3.73l15.11,64.1L189,7.17a8.3,8.3,0,0,1,1.92-3.73,6.24,6.24,0,0,1,3.73-.95h8.89a2.12,2.12,0,0,1,2.39,2.39,9,9,0,0,1-.19,1.53A12.58,12.58,0,0,1,205,8.8L182,82.75a7.31,7.31,0,0,1-2,3.73,6.14,6.14,0,0,1-3.63,1h-8.23c-1.82,0-3.06-.28-3.83-1a6.85,6.85,0,0,1-1.82-3.83L147.64,21,132.9,82.56a7.43,7.43,0,0,1-1.81,3.82,6,6,0,0,1-3.83,1ZM242,89.92a63.18,63.18,0,0,1-14.73-1.72c-4.79-1.15-8.52-2.39-11-3.83a6.89,6.89,0,0,1-3-2.67,6.84,6.84,0,0,1-.57-2.68V74.14c0-2,.76-3,2.2-3a5.45,5.45,0,0,1,1.72.29c.57.19,1.43.57,2.39,1a51.94,51.94,0,0,0,10.52,3.34,57.16,57.16,0,0,0,11.39,1.15c6,0,10.71-1,14-3.15a10.3,10.3,0,0,0,5-9.09,9.33,9.33,0,0,0-2.58-6.7c-1.73-1.82-5-3.44-9.67-5l-13.87-4.31c-7-2.2-12.15-5.45-15.3-9.76a22.75,22.75,0,0,1-4.79-13.87,21.26,21.26,0,0,1,2.59-10.62,24.6,24.6,0,0,1,6.88-7.84,30.28,30.28,0,0,1,9.95-5A41.68,41.68,0,0,1,245.12,0a49.33,49.33,0,0,1,6.41.38c2.2.29,4.2.67,6.21,1s3.73,1,5.46,1.54a20.06,20.06,0,0,1,4,1.72,8.18,8.18,0,0,1,2.87,2.39,5.11,5.11,0,0,1,.87,3.16v4.49c0,2-.77,3.06-2.21,3.06a10,10,0,0,1-3.63-1.14,43.73,43.73,0,0,0-18.37-3.74c-5.45,0-9.75.87-12.72,2.68s-4.5,4.59-4.5,8.52a9,9,0,0,0,2.87,6.79c1.92,1.82,5.46,3.63,10.53,5.26l13.58,4.3c6.89,2.21,11.86,5.27,14.83,9.19A21.68,21.68,0,0,1,275.73,63a24.56,24.56,0,0,1-2.49,11.1,25.84,25.84,0,0,1-7,8.42,30.87,30.87,0,0,1-10.62,5.35,45.49,45.49,0,0,1-13.68,2Z"></path><path class="cls-2" d="M260,136.41C228.57,159.66,182.84,172,143.52,172c-55.1,0-104.75-20.38-142.25-54.24-3-2.68-.28-6.31,3.26-4.21,40.56,23.53,90.59,37.79,142.34,37.79a284,284,0,0,0,108.58-22.2C260.71,126.75,265.21,132.59,260,136.41Z"></path><path class="cls-2" d="M273.15,121.49c-4-5.17-26.6-2.49-36.83-1.24-3.07.38-3.54-2.3-.77-4.31,18-12.63,47.54-9,51-4.78s-1,33.86-17.8,48c-2.58,2.2-5.07,1-3.92-1.82C268.65,147.89,277.16,126.56,273.15,121.49Z"></path></g></g></svg> 